<svg width="14070" height="3946" viewBox="0 0 14070 3946" fill="none" xmlns="http://www.w3.org/2000/svg">
<g clip-path="url(#clip0_519_105)">
<rect width="14070" height="3946" fill="white"/>
<rect width="14070" height="3946" fill="url(#paint0_linear_519_105)"/>
<rect width="14070" height="3946" fill="url(#paint1_radial_519_105)" fill-opacity="0.2"/>
<rect width="14070" height="3946" fill="url(#paint2_radial_519_105)" fill-opacity="0.2"/>
<circle cx="7035" cy="2534" r="3950" stroke="url(#paint3_linear_519_105)" stroke-width="100"/>
<circle cx="7035" cy="2534" r="3450" stroke="url(#paint4_linear_519_105)" stroke-width="100"/>
<circle cx="7035" cy="2534" r="2950" stroke="url(#paint5_linear_519_105)" stroke-width="100"/>
<circle cx="6999" cy="2534" r="4450" stroke="url(#paint6_linear_519_105)" stroke-width="100"/>
<circle cx="7035" cy="2534" r="4950" stroke="url(#paint7_linear_519_105)" stroke-width="100"/>
<circle cx="7035" cy="2534" r="5450" stroke="url(#paint8_linear_519_105)" stroke-width="100"/>
<circle cx="7035" cy="2534" r="6950" stroke="url(#paint9_linear_519_105)" stroke-width="100"/>
<circle cx="6999" cy="2534" r="5950" stroke="url(#paint10_linear_519_105)" stroke-width="100"/>
<circle cx="6999" cy="2534" r="6450" stroke="url(#paint11_linear_519_105)" stroke-width="100"/>
<g filter="url(#filter0_d_519_105)">
<path d="M3823.65 2049.2V2378.8C3823.65 2411.87 3817.78 2436.4 3806.05 2452.4C3794.32 2468.4 3775.65 2483.87 3750.05 2498.8C3720.18 2515.87 3676.45 2530.8 3618.85 2543.6C3562.32 2556.4 3505.78 2562.8 3449.25 2562.8C3346.85 2562.8 3253.52 2545.2 3169.25 2510C3086.05 2474.8 3019.92 2419.33 2970.85 2343.6C2921.78 2267.87 2897.25 2170.27 2897.25 2050.8C2897.25 1938.8 2921.78 1844.4 2970.85 1767.6C3020.98 1690.8 3087.65 1632.67 3170.85 1593.2C3255.12 1553.73 3348.98 1534 3452.45 1534C3519.65 1534 3577.78 1541.47 3626.85 1556.4C3676.98 1570.27 3715.38 1590.53 3742.05 1617.2C3768.72 1642.8 3782.05 1673.2 3782.05 1708.4C3782.05 1735.07 3775.12 1759.07 3761.25 1780.4C3747.38 1800.67 3731.38 1816.67 3713.25 1828.4C3686.58 1812.4 3652.98 1796.93 3612.45 1782C3571.92 1767.07 3525.52 1759.6 3473.25 1759.6C3416.72 1759.6 3366.58 1771.87 3322.85 1796.4C3279.12 1819.87 3244.98 1853.47 3220.45 1897.2C3196.98 1939.87 3185.25 1990.53 3185.25 2049.2C3185.25 2113.2 3196.45 2167.07 3218.85 2210.8C3242.32 2253.47 3274.32 2285.47 3314.85 2306.8C3355.38 2328.13 3401.78 2338.8 3454.05 2338.8C3477.52 2338.8 3497.78 2336.67 3514.85 2332.4C3532.98 2327.07 3546.85 2322.27 3556.45 2318V2164.4H3385.25C3378.85 2152.67 3372.45 2137.2 3366.05 2118C3360.72 2098.8 3358.05 2078.53 3358.05 2057.2C3358.05 2018.8 3366.58 1991.07 3383.65 1974C3401.78 1956.93 3424.72 1948.4 3452.45 1948.4H3722.85C3754.85 1948.4 3779.38 1957.47 3796.45 1975.6C3814.58 1992.67 3823.65 2017.2 3823.65 2049.2ZM4118.15 2266.8L4108.55 2087.6L4478.15 2026.8C4476.02 2005.47 4465.35 1984.13 4446.15 1962.8C4426.95 1941.47 4397.08 1930.8 4356.55 1930.8C4313.88 1930.8 4278.15 1944.67 4249.35 1972.4C4221.62 2000.13 4206.68 2039.6 4204.55 2090.8L4214.15 2225.2C4224.82 2274.27 4248.82 2308.4 4286.15 2327.6C4324.55 2346.8 4367.22 2356.4 4414.15 2356.4C4458.95 2356.4 4501.62 2350.53 4542.15 2338.8C4582.68 2327.07 4615.22 2314.27 4639.75 2300.4C4656.82 2311.07 4671.22 2326 4682.95 2345.2C4694.68 2364.4 4700.55 2384.67 4700.55 2406C4700.55 2441.2 4687.22 2470.53 4660.55 2494C4634.95 2516.4 4599.22 2532.93 4553.35 2543.6C4507.48 2554.27 4454.68 2559.6 4394.95 2559.6C4311.75 2559.6 4236.55 2544.13 4169.35 2513.2C4103.22 2481.2 4050.42 2433.73 4010.95 2370.8C3972.55 2307.87 3953.35 2228.93 3953.35 2134C3953.35 2063.6 3964.55 2002.8 3986.95 1951.6C4010.42 1900.4 4041.35 1858.8 4079.75 1826.8C4118.15 1794.8 4160.82 1771.33 4207.75 1756.4C4255.75 1740.4 4304.82 1732.4 4354.95 1732.4C4430.68 1732.4 4496.82 1747.33 4553.35 1777.2C4609.88 1806 4654.15 1846 4686.15 1897.2C4718.15 1947.33 4734.15 2005.47 4734.15 2071.6C4734.15 2107.87 4724.02 2135.6 4703.75 2154.8C4683.48 2174 4655.22 2186.27 4618.95 2191.6L4118.15 2266.8ZM4868.28 2111.6H5137.08V2266.8C5137.08 2293.47 5145.61 2313.2 5162.68 2326C5180.81 2337.73 5205.88 2343.6 5237.88 2343.6C5253.88 2343.6 5270.41 2342.53 5287.48 2340.4C5304.54 2337.2 5319.48 2333.47 5332.28 2329.2C5341.88 2339.87 5349.88 2352.67 5356.28 2367.6C5363.74 2382.53 5367.48 2400.13 5367.48 2420.4C5367.48 2459.87 5352.01 2492.93 5321.08 2519.6C5291.21 2545.2 5237.88 2558 5161.08 2558C5067.21 2558 4994.68 2536.67 4943.48 2494C4893.34 2451.33 4868.28 2382 4868.28 2286V2111.6ZM5044.28 1982V1774H5346.68C5353.08 1784.67 5358.94 1799.07 5364.28 1817.2C5370.68 1835.33 5373.88 1855.07 5373.88 1876.4C5373.88 1913.73 5365.34 1940.93 5348.28 1958C5332.28 1974 5310.41 1982 5282.68 1982H5044.28ZM5137.08 2150H4868.28V1575.6C4880.01 1572.4 4896.54 1569.2 4917.88 1566C4940.28 1561.73 4963.74 1559.6 4988.28 1559.6C5040.54 1559.6 5078.41 1568.67 5101.88 1586.8C5125.34 1604.93 5137.08 1638.53 5137.08 1687.6V2150Z" fill="white"/>
<path d="M6139.73 2335.6C6191.99 2335.6 6228.79 2327.07 6250.13 2310C6271.46 2292.93 6282.13 2273.73 6282.13 2252.4C6282.13 2231.07 6273.59 2214.53 6256.53 2202.8C6239.46 2190 6215.46 2178.27 6184.53 2167.6L6117.33 2145.2C6055.46 2123.87 6000.53 2101.47 5952.53 2078C5905.59 2053.47 5868.79 2022 5842.13 1983.6C5815.46 1945.2 5802.13 1895.07 5802.13 1833.2C5802.13 1742.53 5836.79 1670 5906.13 1615.6C5976.53 1561.2 6074.66 1534 6200.53 1534C6262.39 1534 6317.33 1539.87 6365.33 1551.6C6413.33 1563.33 6451.19 1581.47 6478.93 1606C6506.66 1629.47 6520.53 1659.87 6520.53 1697.2C6520.53 1723.87 6514.13 1747.33 6501.33 1767.6C6488.53 1787.87 6473.06 1804.93 6454.93 1818.8C6431.46 1803.87 6399.99 1791.07 6360.53 1780.4C6321.06 1768.67 6277.86 1762.8 6230.93 1762.8C6182.93 1762.8 6147.73 1769.73 6125.33 1783.6C6102.93 1796.4 6091.73 1812.93 6091.73 1833.2C6091.73 1849.2 6098.66 1862.53 6112.53 1873.2C6127.46 1882.8 6148.26 1891.87 6174.93 1900.4L6259.73 1927.6C6361.06 1959.6 6438.39 2001.2 6491.73 2052.4C6545.06 2102.53 6571.73 2170.27 6571.73 2255.6C6571.73 2346.27 6535.46 2420.4 6462.93 2478C6391.46 2534.53 6286.93 2562.8 6149.32 2562.8C6084.26 2562.8 6025.59 2555.87 5973.32 2542C5921.06 2528.13 5879.46 2507.33 5848.53 2479.6C5817.59 2451.87 5802.13 2418.27 5802.13 2378.8C5802.13 2347.87 5811.19 2321.73 5829.33 2300.4C5847.46 2278 5867.19 2260.93 5888.53 2249.2C5918.39 2272.67 5954.66 2292.93 5997.33 2310C6041.06 2327.07 6088.53 2335.6 6139.73 2335.6ZM6705.78 2111.6H6974.58V2266.8C6974.58 2293.47 6983.11 2313.2 7000.18 2326C7018.31 2337.73 7043.38 2343.6 7075.38 2343.6C7091.38 2343.6 7107.91 2342.53 7124.98 2340.4C7142.04 2337.2 7156.98 2333.47 7169.78 2329.2C7179.38 2339.87 7187.38 2352.67 7193.78 2367.6C7201.24 2382.53 7204.98 2400.13 7204.98 2420.4C7204.98 2459.87 7189.51 2492.93 7158.58 2519.6C7128.71 2545.2 7075.38 2558 6998.58 2558C6904.71 2558 6832.18 2536.67 6780.98 2494C6730.84 2451.33 6705.78 2382 6705.78 2286V2111.6ZM6881.78 1982V1774H7184.18C7190.58 1784.67 7196.44 1799.07 7201.78 1817.2C7208.18 1835.33 7211.38 1855.07 7211.38 1876.4C7211.38 1913.73 7202.84 1940.93 7185.78 1958C7169.78 1974 7147.91 1982 7120.18 1982H6881.78ZM6974.58 2150H6705.78V1575.6C6717.51 1572.4 6734.04 1569.2 6755.38 1566C6777.78 1561.73 6801.24 1559.6 6825.78 1559.6C6878.04 1559.6 6915.91 1568.67 6939.38 1586.8C6962.84 1604.93 6974.58 1638.53 6974.58 1687.6V2150ZM7671.31 2361.2C7689.45 2361.2 7709.18 2359.6 7730.51 2356.4C7752.91 2352.13 7769.45 2346.8 7780.11 2340.4V2212.4L7664.91 2222C7635.05 2224.13 7610.51 2230.53 7591.31 2241.2C7572.11 2251.87 7562.51 2267.87 7562.51 2289.2C7562.51 2310.53 7570.51 2328.13 7586.51 2342C7603.58 2354.8 7631.85 2361.2 7671.31 2361.2ZM7658.51 1732.4C7774.78 1732.4 7867.58 1756.4 7936.91 1804.4C8007.31 1851.33 8042.51 1924.93 8042.51 2025.2V2383.6C8042.51 2411.33 8034.51 2434.27 8018.51 2452.4C8003.58 2469.47 7985.45 2484.4 7964.11 2497.2C7929.98 2517.47 7888.38 2532.93 7839.31 2543.6C7790.25 2554.27 7734.25 2559.6 7671.31 2559.6C7559.31 2559.6 7469.18 2538.27 7400.91 2495.6C7333.71 2451.87 7300.11 2386.27 7300.11 2298.8C7300.11 2225.2 7321.98 2168.67 7365.71 2129.2C7410.51 2089.73 7478.25 2065.2 7568.91 2055.6L7778.51 2033.2V2022C7778.51 1991.07 7764.65 1969.2 7736.91 1956.4C7710.25 1942.53 7671.31 1935.6 7620.11 1935.6C7580.65 1935.6 7541.18 1939.87 7501.71 1948.4C7463.31 1956.93 7428.65 1967.6 7397.71 1980.4C7383.85 1970.8 7372.11 1956.4 7362.51 1937.2C7352.91 1916.93 7348.11 1896.13 7348.11 1874.8C7348.11 1823.6 7375.31 1787.33 7429.71 1766C7460.65 1754.27 7496.91 1745.73 7538.51 1740.4C7581.18 1735.07 7621.18 1732.4 7658.51 1732.4ZM8480.83 1985.2V2167.6H8208.83V1943.6C8208.83 1912.67 8216.83 1886 8232.83 1863.6C8249.89 1840.13 8271.76 1819.87 8298.43 1802.8C8335.76 1780.4 8379.49 1763.33 8429.63 1751.6C8479.76 1739.87 8531.49 1734 8584.83 1734C8701.09 1734 8759.23 1775.07 8759.23 1857.2C8759.23 1876.4 8756.56 1894.53 8751.23 1911.6C8745.89 1927.6 8739.49 1941.47 8732.03 1953.2C8721.36 1951.07 8708.56 1949.47 8693.63 1948.4C8678.69 1947.33 8662.16 1946.8 8644.03 1946.8C8617.36 1946.8 8589.09 1950 8559.23 1956.4C8529.36 1962.8 8503.23 1972.4 8480.83 1985.2ZM8208.83 2111.6H8480.83V2532.4C8469.09 2535.6 8452.03 2538.8 8429.63 2542C8408.29 2545.2 8384.83 2546.8 8359.23 2546.8C8306.96 2546.8 8268.56 2537.73 8244.03 2519.6C8220.56 2501.47 8208.83 2467.87 8208.83 2418.8V2111.6ZM8869.84 2111.6H9138.64V2266.8C9138.64 2293.47 9147.17 2313.2 9164.24 2326C9182.37 2337.73 9207.44 2343.6 9239.44 2343.6C9255.44 2343.6 9271.97 2342.53 9289.04 2340.4C9306.1 2337.2 9321.04 2333.47 9333.84 2329.2C9343.44 2339.87 9351.44 2352.67 9357.84 2367.6C9365.3 2382.53 9369.04 2400.13 9369.04 2420.4C9369.04 2459.87 9353.57 2492.93 9322.64 2519.6C9292.77 2545.2 9239.44 2558 9162.64 2558C9068.77 2558 8996.24 2536.67 8945.04 2494C8894.9 2451.33 8869.84 2382 8869.84 2286V2111.6ZM9045.84 1982V1774H9348.24C9354.64 1784.67 9360.5 1799.07 9365.84 1817.2C9372.24 1835.33 9375.44 1855.07 9375.44 1876.4C9375.44 1913.73 9366.9 1940.93 9349.84 1958C9333.84 1974 9311.97 1982 9284.24 1982H9045.84ZM9138.64 2150H8869.84V1575.6C8881.57 1572.4 8898.1 1569.2 8919.44 1566C8941.84 1561.73 8965.3 1559.6 8989.84 1559.6C9042.1 1559.6 9079.97 1568.67 9103.44 1586.8C9126.9 1604.93 9138.64 1638.53 9138.64 1687.6V2150ZM9627.53 2266.8L9617.93 2087.6L9987.53 2026.8C9985.39 2005.47 9974.73 1984.13 9955.53 1962.8C9936.33 1941.47 9906.46 1930.8 9865.93 1930.8C9823.26 1930.8 9787.53 1944.67 9758.73 1972.4C9730.99 2000.13 9716.06 2039.6 9713.93 2090.8L9723.53 2225.2C9734.19 2274.27 9758.19 2308.4 9795.53 2327.6C9833.93 2346.8 9876.59 2356.4 9923.53 2356.4C9968.33 2356.4 10011 2350.53 10051.5 2338.8C10092.1 2327.07 10124.6 2314.27 10149.1 2300.4C10166.2 2311.07 10180.6 2326 10192.3 2345.2C10204.1 2364.4 10209.9 2384.67 10209.9 2406C10209.9 2441.2 10196.6 2470.53 10169.9 2494C10144.3 2516.4 10108.6 2532.93 10062.7 2543.6C10016.9 2554.27 9964.06 2559.6 9904.33 2559.6C9821.13 2559.6 9745.93 2544.13 9678.73 2513.2C9612.59 2481.2 9559.79 2433.73 9520.33 2370.8C9481.93 2307.87 9462.73 2228.93 9462.73 2134C9462.73 2063.6 9473.93 2002.8 9496.33 1951.6C9519.79 1900.4 9550.73 1858.8 9589.13 1826.8C9627.53 1794.8 9670.19 1771.33 9717.13 1756.4C9765.13 1740.4 9814.19 1732.4 9864.33 1732.4C9940.06 1732.4 10006.2 1747.33 10062.7 1777.2C10119.3 1806 10163.5 1846 10195.5 1897.2C10227.5 1947.33 10243.5 2005.47 10243.5 2071.6C10243.5 2107.87 10233.4 2135.6 10213.1 2154.8C10192.9 2174 10164.6 2186.27 10128.3 2191.6L9627.53 2266.8ZM10872.1 2324.4V1860.4H11142.5V2362.8C11142.5 2389.47 11136.6 2412.4 11124.9 2431.6C11114.2 2450.8 11096.6 2467.87 11072.1 2482.8C11041.1 2503.07 11001.1 2520.67 10952.1 2535.6C10903 2551.6 10847 2559.6 10784.1 2559.6C10691.3 2559.6 10611.8 2544.13 10545.7 2513.2C10479.5 2482.27 10428.9 2436.4 10393.7 2375.6C10358.5 2313.73 10340.9 2238 10340.9 2148.4C10340.9 2054.53 10359 1977.2 10395.3 1916.4C10431.5 1854.53 10480.6 1808.67 10542.5 1778.8C10605.4 1747.87 10675.3 1732.4 10752.1 1732.4C10789.4 1732.4 10821.9 1736.13 10849.7 1743.6C10877.4 1751.07 10900.3 1759.6 10918.5 1769.2V1990C10904.6 1979.33 10886.5 1969.2 10864.1 1959.6C10842.7 1950 10818.2 1945.2 10790.5 1945.2C10754.2 1945.2 10722.7 1952.67 10696.1 1967.6C10670.5 1982.53 10650.7 2004.93 10636.9 2034.8C10623 2064.67 10616.1 2102.53 10616.1 2148.4C10616.1 2215.6 10630.5 2265.2 10659.3 2297.2C10689.1 2329.2 10730.2 2345.2 10782.5 2345.2C10801.7 2345.2 10819.3 2343.07 10835.3 2338.8C10851.3 2333.47 10863.5 2328.67 10872.1 2324.4ZM11142.5 1911.6H10870.5V1490.8C10882.2 1487.6 10898.7 1484.4 10920.1 1481.2C10942.5 1478 10966.5 1476.4 10992.1 1476.4C11045.4 1476.4 11083.8 1485.47 11107.3 1503.6C11130.7 1520.67 11142.5 1554.27 11142.5 1604.4V1911.6Z" fill="#FFE381"/>
</g>
<path d="M382.932 3541C380.332 3552 377.232 3563.2 373.632 3574.6C370.032 3585.8 366.632 3596.4 363.432 3606.4C360.232 3616.2 357.432 3624.3 355.032 3630.7C353.032 3632.5 350.332 3633.9 346.932 3634.9C343.532 3635.9 339.332 3636.4 334.332 3636.4C328.932 3636.4 324.032 3635.6 319.632 3634C315.432 3632.2 312.532 3629.7 310.932 3626.5C309.132 3622.5 307.032 3616.8 304.632 3609.4C302.232 3601.8 299.732 3593.2 297.132 3583.6C294.732 3574 292.232 3564 289.632 3553.6C287.232 3543.2 284.932 3533.1 282.732 3523.3C280.732 3513.5 279.032 3504.8 277.632 3497.2C279.832 3495 282.532 3493.1 285.732 3491.5C289.132 3489.9 292.932 3489.1 297.132 3489.1C302.532 3489.1 306.832 3490.4 310.032 3493C313.232 3495.6 315.232 3499.9 316.032 3505.9C318.032 3517.5 319.932 3528.5 321.732 3538.9C323.532 3549.1 325.332 3558.4 327.132 3566.8C328.932 3575.2 330.432 3582.4 331.632 3588.4C333.032 3594.2 334.032 3598.6 334.632 3601.6H335.832C337.232 3597 339.332 3589.7 342.132 3579.7C344.932 3569.7 348.232 3558.3 352.032 3545.5C356.032 3532.5 359.932 3519.3 363.732 3505.9C366.532 3504.5 369.432 3503.4 372.432 3502.6C375.632 3501.6 379.232 3501.1 383.232 3501.1C388.432 3501.1 392.832 3502 396.432 3503.8C400.032 3505.4 402.432 3508 403.632 3511.6C407.632 3524.4 411.332 3536.9 414.732 3549.1C418.332 3561.1 421.432 3571.8 424.032 3581.2C426.832 3590.4 428.832 3597.3 430.032 3601.9H431.532C434.932 3585.3 438.532 3567.7 442.332 3549.1C446.132 3530.5 449.332 3512 451.932 3493.6C456.932 3490.6 462.432 3489.1 468.432 3489.1C473.632 3489.1 477.832 3490.3 481.032 3492.7C484.232 3494.9 485.832 3498.6 485.832 3503.8C485.832 3506.6 485.232 3511.1 484.032 3517.3C483.032 3523.5 481.532 3530.7 479.532 3538.9C477.732 3547.1 475.632 3555.8 473.232 3565C470.832 3574.2 468.332 3583.1 465.732 3591.7C463.332 3600.3 461.032 3608 458.832 3614.8C456.632 3621.6 454.732 3626.9 453.132 3630.7C451.332 3632.3 448.432 3633.6 444.432 3634.6C440.432 3635.8 436.032 3636.4 431.232 3636.4C418.832 3636.4 411.632 3633.4 409.632 3627.4C407.232 3621.4 404.432 3613.7 401.232 3604.3C398.232 3594.9 395.132 3584.7 391.932 3573.7C388.932 3562.7 385.932 3551.8 382.932 3541ZM610.569 3541C607.969 3552 604.869 3563.2 601.269 3574.6C597.669 3585.8 594.269 3596.4 591.069 3606.4C587.869 3616.2 585.069 3624.3 582.669 3630.7C580.669 3632.5 577.969 3633.9 574.569 3634.9C571.169 3635.9 566.969 3636.4 561.969 3636.4C556.569 3636.4 551.669 3635.6 547.269 3634C543.069 3632.2 540.169 3629.7 538.569 3626.5C536.769 3622.5 534.669 3616.8 532.269 3609.4C529.869 3601.8 527.369 3593.2 524.769 3583.6C522.369 3574 519.869 3564 517.269 3553.6C514.869 3543.2 512.569 3533.1 510.369 3523.3C508.369 3513.5 506.669 3504.8 505.269 3497.2C507.469 3495 510.169 3493.1 513.369 3491.5C516.769 3489.9 520.569 3489.1 524.769 3489.1C530.169 3489.1 534.469 3490.4 537.669 3493C540.869 3495.6 542.869 3499.9 543.669 3505.9C545.669 3517.5 547.569 3528.5 549.369 3538.9C551.169 3549.1 552.969 3558.4 554.769 3566.8C556.569 3575.2 558.069 3582.4 559.269 3588.4C560.669 3594.2 561.669 3598.6 562.269 3601.6H563.469C564.869 3597 566.969 3589.7 569.769 3579.7C572.569 3569.7 575.869 3558.3 579.669 3545.5C583.669 3532.5 587.569 3519.3 591.369 3505.9C594.169 3504.5 597.069 3503.4 600.069 3502.6C603.269 3501.6 606.869 3501.1 610.869 3501.1C616.069 3501.1 620.469 3502 624.069 3503.8C627.669 3505.4 630.069 3508 631.269 3511.6C635.269 3524.4 638.969 3536.9 642.369 3549.1C645.969 3561.1 649.069 3571.8 651.669 3581.2C654.469 3590.4 656.469 3597.3 657.669 3601.9H659.169C662.569 3585.3 666.169 3567.7 669.969 3549.1C673.769 3530.5 676.969 3512 679.569 3493.6C684.569 3490.6 690.069 3489.1 696.069 3489.1C701.269 3489.1 705.469 3490.3 708.669 3492.7C711.869 3494.9 713.469 3498.6 713.469 3503.8C713.469 3506.6 712.869 3511.1 711.669 3517.3C710.669 3523.5 709.169 3530.7 707.169 3538.9C705.369 3547.1 703.269 3555.8 700.869 3565C698.469 3574.2 695.969 3583.1 693.369 3591.7C690.969 3600.3 688.669 3608 686.469 3614.8C684.269 3621.6 682.369 3626.9 680.769 3630.7C678.969 3632.3 676.069 3633.6 672.069 3634.6C668.069 3635.8 663.669 3636.4 658.869 3636.4C646.469 3636.4 639.269 3633.4 637.269 3627.4C634.869 3621.4 632.069 3613.7 628.869 3604.3C625.869 3594.9 622.769 3584.7 619.569 3573.7C616.569 3562.7 613.569 3551.8 610.569 3541ZM838.205 3541C835.605 3552 832.505 3563.2 828.905 3574.6C825.305 3585.8 821.905 3596.4 818.705 3606.4C815.505 3616.2 812.705 3624.3 810.305 3630.7C808.305 3632.5 805.605 3633.9 802.205 3634.9C798.805 3635.9 794.605 3636.4 789.605 3636.4C784.205 3636.4 779.305 3635.6 774.905 3634C770.705 3632.2 767.805 3629.7 766.205 3626.5C764.405 3622.5 762.305 3616.8 759.905 3609.4C757.505 3601.8 755.005 3593.2 752.405 3583.6C750.005 3574 747.505 3564 744.905 3553.6C742.505 3543.2 740.205 3533.1 738.005 3523.3C736.005 3513.5 734.305 3504.8 732.905 3497.2C735.105 3495 737.805 3493.1 741.005 3491.5C744.405 3489.9 748.205 3489.1 752.405 3489.1C757.805 3489.1 762.105 3490.4 765.305 3493C768.505 3495.6 770.505 3499.9 771.305 3505.9C773.305 3517.5 775.205 3528.5 777.005 3538.9C778.805 3549.1 780.605 3558.4 782.405 3566.8C784.205 3575.2 785.705 3582.4 786.905 3588.4C788.305 3594.2 789.305 3598.6 789.905 3601.6H791.105C792.505 3597 794.605 3589.7 797.405 3579.7C800.205 3569.7 803.505 3558.3 807.305 3545.5C811.305 3532.5 815.205 3519.3 819.005 3505.9C821.805 3504.5 824.705 3503.4 827.705 3502.6C830.905 3501.6 834.505 3501.1 838.505 3501.1C843.705 3501.1 848.105 3502 851.705 3503.8C855.305 3505.4 857.705 3508 858.905 3511.6C862.905 3524.4 866.605 3536.9 870.005 3549.1C873.605 3561.1 876.705 3571.8 879.305 3581.2C882.105 3590.4 884.105 3597.3 885.305 3601.9H886.805C890.205 3585.3 893.805 3567.7 897.605 3549.1C901.405 3530.5 904.605 3512 907.205 3493.6C912.205 3490.6 917.705 3489.1 923.705 3489.1C928.905 3489.1 933.105 3490.3 936.305 3492.7C939.505 3494.9 941.105 3498.6 941.105 3503.8C941.105 3506.6 940.505 3511.1 939.305 3517.3C938.305 3523.5 936.805 3530.7 934.805 3538.9C933.005 3547.1 930.905 3555.8 928.505 3565C926.105 3574.2 923.605 3583.1 921.005 3591.7C918.605 3600.3 916.305 3608 914.105 3614.8C911.905 3621.6 910.005 3626.9 908.405 3630.7C906.605 3632.3 903.705 3633.6 899.705 3634.6C895.705 3635.8 891.305 3636.4 886.505 3636.4C874.105 3636.4 866.905 3633.4 864.905 3627.4C862.505 3621.4 859.705 3613.7 856.505 3604.3C853.505 3594.9 850.405 3584.7 847.205 3573.7C844.205 3562.7 841.205 3551.8 838.205 3541ZM947.86 3615.7C947.86 3609.3 949.86 3603.9 953.86 3599.5C957.86 3595.1 963.36 3592.9 970.36 3592.9C977.36 3592.9 982.86 3595.1 986.86 3599.5C990.86 3603.9 992.86 3609.3 992.86 3615.7C992.86 3622.1 990.86 3627.5 986.86 3631.9C982.86 3636.3 977.36 3638.5 970.36 3638.5C963.36 3638.5 957.86 3636.3 953.86 3631.9C949.86 3627.5 947.86 3622.1 947.86 3615.7ZM1108.87 3602.8V3508.6H1145.77V3606.7C1145.77 3611.1 1144.77 3614.8 1142.77 3617.8C1140.97 3620.6 1137.97 3623.3 1133.77 3625.9C1128.97 3629.1 1122.37 3631.9 1113.97 3634.3C1105.77 3636.9 1096.37 3638.2 1085.77 3638.2C1069.97 3638.2 1056.17 3635.6 1044.37 3630.4C1032.77 3625 1023.77 3616.8 1017.37 3605.8C1010.97 3594.6 1007.77 3580.5 1007.77 3563.5C1007.77 3546.1 1010.97 3531.8 1017.37 3520.6C1023.97 3509.4 1032.77 3501.2 1043.77 3496C1054.77 3490.6 1066.97 3487.9 1080.37 3487.9C1087.77 3487.9 1094.47 3488.8 1100.47 3490.6C1106.67 3492.4 1111.67 3494.5 1115.47 3496.9V3528.4C1112.27 3525.4 1108.07 3522.8 1102.87 3520.6C1097.67 3518.4 1091.67 3517.3 1084.87 3517.3C1077.47 3517.3 1070.77 3518.9 1064.77 3522.1C1058.77 3525.1 1054.07 3530.1 1050.67 3537.1C1047.27 3543.9 1045.57 3552.8 1045.57 3563.8C1045.57 3579.4 1049.17 3590.8 1056.37 3598C1063.57 3605.2 1073.27 3608.8 1085.47 3608.8C1090.87 3608.8 1095.47 3608.2 1099.27 3607C1103.07 3605.8 1106.27 3604.4 1108.87 3602.8ZM1145.77 3516.1L1108.87 3516.4V3439C1110.27 3438.6 1112.47 3438.1 1115.47 3437.5C1118.67 3436.9 1121.97 3436.6 1125.37 3436.6C1132.57 3436.6 1137.77 3437.9 1140.97 3440.5C1144.17 3442.9 1145.77 3447.3 1145.77 3453.7V3516.1ZM1183.1 3449.8C1183.1 3444 1185.1 3439.1 1189.1 3435.1C1193.3 3431.1 1198.5 3429.1 1204.7 3429.1C1211.1 3429.1 1216.2 3431.1 1220 3435.1C1224 3439.1 1226 3444 1226 3449.8C1226 3455.4 1224 3460.3 1220 3464.5C1216.2 3468.5 1211.1 3470.5 1204.7 3470.5C1198.5 3470.5 1193.3 3468.5 1189.1 3464.5C1185.1 3460.3 1183.1 3455.4 1183.1 3449.8ZM1186.1 3554.8H1223.3V3633.4C1221.7 3634 1219.4 3634.5 1216.4 3634.9C1213.4 3635.5 1210.1 3635.8 1206.5 3635.8C1199.7 3635.8 1194.6 3634.6 1191.2 3632.2C1187.8 3629.6 1186.1 3625.1 1186.1 3618.7V3554.8ZM1223.3 3573.7H1186.1V3493.3C1187.7 3492.7 1190 3492.2 1193 3491.8C1196.2 3491.2 1199.6 3490.9 1203.2 3490.9C1210.2 3490.9 1215.3 3492.2 1218.5 3494.8C1221.7 3497.2 1223.3 3501.7 1223.3 3508.3V3573.7ZM1372.92 3593.8C1372.92 3607.8 1367.72 3618.8 1357.32 3626.8C1346.92 3634.6 1331.82 3638.5 1312.02 3638.5C1296.02 3638.5 1282.92 3636.1 1272.72 3631.3C1262.52 3626.5 1257.42 3620.1 1257.42 3612.1C1257.42 3608.7 1258.22 3605.6 1259.82 3602.8C1261.42 3599.8 1263.52 3597.5 1266.12 3595.9C1271.72 3599.5 1278.22 3602.7 1285.62 3605.5C1293.02 3608.3 1301.42 3609.7 1310.82 3609.7C1327.82 3609.7 1336.32 3604.5 1336.32 3594.1C1336.32 3589.7 1334.82 3586.2 1331.82 3583.6C1328.82 3580.8 1324.22 3578.8 1318.02 3577.6L1300.92 3573.1C1286.32 3569.9 1275.42 3564.9 1268.22 3558.1C1261.22 3551.3 1257.72 3542.2 1257.72 3530.8C1257.72 3518.2 1262.92 3507.9 1273.32 3499.9C1283.72 3491.7 1298.12 3487.6 1316.52 3487.6C1326.12 3487.6 1334.72 3488.6 1342.32 3490.6C1349.92 3492.4 1355.82 3495.1 1360.02 3498.7C1364.42 3502.3 1366.62 3506.6 1366.62 3511.6C1366.62 3515 1365.82 3518.1 1364.22 3520.9C1362.82 3523.5 1360.92 3525.5 1358.52 3526.9C1356.12 3525.5 1352.82 3524 1348.62 3522.4C1344.62 3520.6 1340.02 3519.2 1334.82 3518.2C1329.62 3517 1324.42 3516.4 1319.22 3516.4C1311.42 3516.4 1305.22 3517.7 1300.62 3520.3C1296.22 3522.7 1294.02 3526.2 1294.02 3530.8C1294.02 3534.2 1295.32 3537.1 1297.92 3539.5C1300.52 3541.9 1304.92 3543.8 1311.12 3545.2L1326.42 3548.8C1342.62 3552.6 1354.42 3558.2 1361.82 3565.6C1369.22 3572.8 1372.92 3582.2 1372.92 3593.8ZM1478.11 3517.6C1466.11 3517.6 1456.01 3521.5 1447.81 3529.3C1439.81 3537.1 1435.81 3548.5 1435.81 3563.5C1435.81 3578.3 1439.71 3589.5 1447.51 3597.1C1455.31 3604.7 1465.41 3608.5 1477.81 3608.5C1485.21 3608.5 1491.41 3607.6 1496.41 3605.8C1501.61 3603.8 1506.11 3601.7 1509.91 3599.5C1512.91 3601.3 1515.21 3603.5 1516.81 3606.1C1518.61 3608.5 1519.51 3611.5 1519.51 3615.1C1519.51 3621.9 1515.41 3627.5 1507.21 3631.9C1499.01 3636.1 1488.21 3638.2 1474.81 3638.2C1459.61 3638.2 1446.21 3635.5 1434.61 3630.1C1423.21 3624.5 1414.21 3616.1 1407.61 3604.9C1401.21 3593.7 1398.01 3579.9 1398.01 3563.5C1398.01 3546.5 1401.41 3532.4 1408.21 3521.2C1415.21 3510 1424.41 3501.7 1435.81 3496.3C1447.41 3490.7 1460.11 3487.9 1473.91 3487.9C1487.11 3487.9 1497.71 3490.2 1505.71 3494.8C1513.71 3499.4 1517.71 3505.1 1517.71 3511.9C1517.71 3514.9 1516.91 3517.7 1515.31 3520.3C1513.71 3522.9 1511.81 3525 1509.61 3526.6C1505.61 3524.2 1501.11 3522.1 1496.11 3520.3C1491.11 3518.5 1485.11 3517.6 1478.11 3517.6ZM1685.62 3562.9C1685.62 3578.3 1682.62 3591.7 1676.62 3603.1C1670.62 3614.3 1662.12 3623 1651.12 3629.2C1640.32 3635.2 1627.52 3638.2 1612.72 3638.2C1597.92 3638.2 1585.02 3635.2 1574.02 3629.2C1563.02 3623 1554.42 3614.3 1548.22 3603.1C1542.22 3591.9 1539.22 3578.5 1539.22 3562.9C1539.22 3547.5 1542.32 3534.2 1548.52 3523C1554.72 3511.8 1563.32 3503.2 1574.32 3497.2C1585.32 3491 1598.12 3487.9 1612.72 3487.9C1627.32 3487.9 1640.02 3491 1650.82 3497.2C1661.82 3503.2 1670.32 3511.9 1676.32 3523.3C1682.52 3534.5 1685.62 3547.7 1685.62 3562.9ZM1612.72 3517.3C1601.72 3517.3 1593.02 3521.3 1586.62 3529.3C1580.42 3537.3 1577.32 3548.5 1577.32 3562.9C1577.32 3577.7 1580.42 3589.1 1586.62 3597.1C1592.82 3604.9 1601.52 3608.8 1612.72 3608.8C1623.72 3608.8 1632.32 3604.8 1638.52 3596.8C1644.72 3588.8 1647.82 3577.5 1647.82 3562.9C1647.82 3548.7 1644.72 3537.6 1638.52 3529.6C1632.32 3521.4 1623.72 3517.3 1612.72 3517.3ZM1754.12 3526V3567.1H1717.22V3523C1717.22 3518 1718.42 3513.8 1720.82 3510.4C1723.22 3506.8 1726.62 3503.5 1731.02 3500.5C1737.02 3496.9 1744.62 3493.9 1753.82 3491.5C1763.02 3489.1 1772.92 3487.9 1783.52 3487.9C1802.32 3487.9 1811.72 3493.7 1811.72 3505.3C1811.72 3508.1 1811.32 3510.7 1810.52 3513.1C1809.72 3515.3 1808.72 3517.3 1807.52 3519.1C1805.52 3518.7 1803.02 3518.4 1800.02 3518.2C1797.02 3517.8 1793.82 3517.6 1790.42 3517.6C1783.22 3517.6 1776.42 3518.4 1770.02 3520C1763.82 3521.4 1758.52 3523.4 1754.12 3526ZM1717.22 3554.8L1754.12 3556.6V3633.4C1752.52 3634 1750.22 3634.5 1747.22 3634.9C1744.22 3635.5 1740.92 3635.8 1737.32 3635.8C1730.52 3635.8 1725.42 3634.6 1722.02 3632.2C1718.82 3629.6 1717.22 3625.1 1717.22 3618.7V3554.8ZM1836.46 3554.8H1873.36V3590.2C1873.36 3596.8 1875.26 3601.5 1879.06 3604.3C1883.06 3607.1 1888.66 3608.5 1895.86 3608.5C1899.06 3608.5 1902.46 3608.1 1906.06 3607.3C1909.86 3606.5 1913.06 3605.5 1915.66 3604.3C1917.06 3605.9 1918.36 3607.8 1919.56 3610C1920.76 3612.2 1921.36 3614.9 1921.36 3618.1C1921.36 3623.9 1918.56 3628.7 1912.96 3632.5C1907.56 3636.3 1899.06 3638.2 1887.46 3638.2C1871.66 3638.2 1859.16 3634.7 1849.96 3627.7C1840.96 3620.5 1836.46 3608.9 1836.46 3592.9V3554.8ZM1858.96 3524.2V3495.1H1917.76C1918.56 3496.5 1919.36 3498.5 1920.16 3501.1C1921.16 3503.7 1921.66 3506.4 1921.66 3509.2C1921.66 3514.2 1920.46 3518 1918.06 3520.6C1915.66 3523 1912.56 3524.2 1908.76 3524.2H1858.96ZM1873.36 3562.9H1836.46V3454.9C1838.06 3454.3 1840.36 3453.7 1843.36 3453.1C1846.56 3452.5 1849.86 3452.2 1853.26 3452.2C1860.26 3452.2 1865.36 3453.5 1868.56 3456.1C1871.76 3458.5 1873.36 3462.9 1873.36 3469.3V3562.9ZM1949.5 3449.8C1949.5 3444 1951.5 3439.1 1955.5 3435.1C1959.7 3431.1 1964.9 3429.1 1971.1 3429.1C1977.5 3429.1 1982.6 3431.1 1986.4 3435.1C1990.4 3439.1 1992.4 3444 1992.4 3449.8C1992.4 3455.4 1990.4 3460.3 1986.4 3464.5C1982.6 3468.5 1977.5 3470.5 1971.1 3470.5C1964.9 3470.5 1959.7 3468.5 1955.5 3464.5C1951.5 3460.3 1949.5 3455.4 1949.5 3449.8ZM1952.5 3554.8H1989.7V3633.4C1988.1 3634 1985.8 3634.5 1982.8 3634.9C1979.8 3635.5 1976.5 3635.8 1972.9 3635.8C1966.1 3635.8 1961 3634.6 1957.6 3632.2C1954.2 3629.6 1952.5 3625.1 1952.5 3618.7V3554.8ZM1989.7 3573.7H1952.5V3493.3C1954.1 3492.7 1956.4 3492.2 1959.4 3491.8C1962.6 3491.2 1966 3490.9 1969.6 3490.9C1976.6 3490.9 1981.7 3492.2 1984.9 3494.8C1988.1 3497.2 1989.7 3501.7 1989.7 3508.3V3573.7ZM2102.42 3517.6C2090.42 3517.6 2080.32 3521.5 2072.12 3529.3C2064.12 3537.1 2060.12 3548.5 2060.12 3563.5C2060.12 3578.3 2064.02 3589.5 2071.82 3597.1C2079.62 3604.7 2089.72 3608.5 2102.12 3608.5C2109.52 3608.5 2115.72 3607.6 2120.72 3605.8C2125.92 3603.8 2130.42 3601.7 2134.22 3599.5C2137.22 3601.3 2139.52 3603.5 2141.12 3606.1C2142.92 3608.5 2143.82 3611.5 2143.82 3615.1C2143.82 3621.9 2139.72 3627.5 2131.52 3631.9C2123.32 3636.1 2112.52 3638.2 2099.12 3638.2C2083.92 3638.2 2070.52 3635.5 2058.92 3630.1C2047.52 3624.5 2038.52 3616.1 2031.92 3604.9C2025.52 3593.7 2022.32 3579.9 2022.32 3563.5C2022.32 3546.5 2025.72 3532.4 2032.52 3521.2C2039.52 3510 2048.72 3501.7 2060.12 3496.3C2071.72 3490.7 2084.42 3487.9 2098.22 3487.9C2111.42 3487.9 2122.02 3490.2 2130.02 3494.8C2138.02 3499.4 2142.02 3505.1 2142.02 3511.9C2142.02 3514.9 2141.22 3517.7 2139.62 3520.3C2138.02 3522.9 2136.12 3525 2133.92 3526.6C2129.92 3524.2 2125.42 3522.1 2120.42 3520.3C2115.42 3518.5 2109.42 3517.6 2102.42 3517.6ZM2283.76 3593.8C2283.76 3607.8 2278.56 3618.8 2268.16 3626.8C2257.76 3634.6 2242.66 3638.5 2222.86 3638.5C2206.86 3638.5 2193.76 3636.1 2183.56 3631.3C2173.36 3626.5 2168.26 3620.1 2168.26 3612.1C2168.26 3608.7 2169.06 3605.6 2170.66 3602.8C2172.26 3599.8 2174.36 3597.5 2176.96 3595.9C2182.56 3599.5 2189.06 3602.7 2196.46 3605.5C2203.86 3608.3 2212.26 3609.7 2221.66 3609.7C2238.66 3609.7 2247.16 3604.5 2247.16 3594.1C2247.16 3589.7 2245.66 3586.2 2242.66 3583.6C2239.66 3580.8 2235.06 3578.8 2228.86 3577.6L2211.76 3573.1C2197.16 3569.9 2186.26 3564.9 2179.06 3558.1C2172.06 3551.3 2168.56 3542.2 2168.56 3530.8C2168.56 3518.2 2173.76 3507.9 2184.16 3499.9C2194.56 3491.7 2208.96 3487.6 2227.36 3487.6C2236.96 3487.6 2245.56 3488.6 2253.16 3490.6C2260.76 3492.4 2266.66 3495.1 2270.86 3498.7C2275.26 3502.3 2277.46 3506.6 2277.46 3511.6C2277.46 3515 2276.66 3518.1 2275.06 3520.9C2273.66 3523.5 2271.76 3525.5 2269.36 3526.9C2266.96 3525.5 2263.66 3524 2259.46 3522.4C2255.46 3520.6 2250.86 3519.2 2245.66 3518.2C2240.46 3517 2235.26 3516.4 2230.06 3516.4C2222.26 3516.4 2216.06 3517.7 2211.46 3520.3C2207.06 3522.7 2204.86 3526.2 2204.86 3530.8C2204.86 3534.2 2206.16 3537.1 2208.76 3539.5C2211.36 3541.9 2215.76 3543.8 2221.96 3545.2L2237.26 3548.8C2253.46 3552.6 2265.26 3558.2 2272.66 3565.6C2280.06 3572.8 2283.76 3582.2 2283.76 3593.8ZM2303.43 3615.7C2303.43 3609.3 2305.43 3603.9 2309.43 3599.5C2313.43 3595.1 2318.93 3592.9 2325.93 3592.9C2332.93 3592.9 2338.43 3595.1 2342.43 3599.5C2346.43 3603.9 2348.43 3609.3 2348.43 3615.7C2348.43 3622.1 2346.43 3627.5 2342.43 3631.9C2338.43 3636.3 2332.93 3638.5 2325.93 3638.5C2318.93 3638.5 2313.43 3636.3 2309.43 3631.9C2305.43 3627.5 2303.43 3622.1 2303.43 3615.7ZM2443.44 3517.6C2431.44 3517.6 2421.34 3521.5 2413.14 3529.3C2405.14 3537.1 2401.14 3548.5 2401.14 3563.5C2401.14 3578.3 2405.04 3589.5 2412.84 3597.1C2420.64 3604.7 2430.74 3608.5 2443.14 3608.5C2450.54 3608.5 2456.74 3607.6 2461.74 3605.8C2466.94 3603.8 2471.44 3601.7 2475.24 3599.5C2478.24 3601.3 2480.54 3603.5 2482.14 3606.1C2483.94 3608.5 2484.84 3611.5 2484.84 3615.1C2484.84 3621.9 2480.74 3627.5 2472.54 3631.9C2464.34 3636.1 2453.54 3638.2 2440.14 3638.2C2424.94 3638.2 2411.54 3635.5 2399.94 3630.1C2388.54 3624.5 2379.54 3616.1 2372.94 3604.9C2366.54 3593.7 2363.34 3579.9 2363.34 3563.5C2363.34 3546.5 2366.74 3532.4 2373.54 3521.2C2380.54 3510 2389.74 3501.7 2401.14 3496.3C2412.74 3490.7 2425.44 3487.9 2439.24 3487.9C2452.44 3487.9 2463.04 3490.2 2471.04 3494.8C2479.04 3499.4 2483.04 3505.1 2483.04 3511.9C2483.04 3514.9 2482.24 3517.7 2480.64 3520.3C2479.04 3522.9 2477.14 3525 2474.94 3526.6C2470.94 3524.2 2466.44 3522.1 2461.44 3520.3C2456.44 3518.5 2450.44 3517.6 2443.44 3517.6ZM2650.95 3562.9C2650.95 3578.3 2647.95 3591.7 2641.95 3603.1C2635.95 3614.3 2627.45 3623 2616.45 3629.2C2605.65 3635.2 2592.85 3638.2 2578.05 3638.2C2563.25 3638.2 2550.35 3635.2 2539.35 3629.2C2528.35 3623 2519.75 3614.3 2513.55 3603.1C2507.55 3591.9 2504.55 3578.5 2504.55 3562.9C2504.55 3547.5 2507.65 3534.2 2513.85 3523C2520.05 3511.8 2528.65 3503.2 2539.65 3497.2C2550.65 3491 2563.45 3487.9 2578.05 3487.9C2592.65 3487.9 2605.35 3491 2616.15 3497.2C2627.15 3503.2 2635.65 3511.9 2641.65 3523.3C2647.85 3534.5 2650.95 3547.7 2650.95 3562.9ZM2578.05 3517.3C2567.05 3517.3 2558.35 3521.3 2551.95 3529.3C2545.75 3537.3 2542.65 3548.5 2542.65 3562.9C2542.65 3577.7 2545.75 3589.1 2551.95 3597.1C2558.15 3604.9 2566.85 3608.8 2578.05 3608.8C2589.05 3608.8 2597.65 3604.8 2603.85 3596.8C2610.05 3588.8 2613.15 3577.5 2613.15 3562.9C2613.15 3548.7 2610.05 3537.6 2603.85 3529.6C2597.65 3521.4 2589.05 3517.3 2578.05 3517.3ZM2806.45 3535.9V3570.1H2769.55V3540.1C2769.55 3532.3 2767.15 3526.6 2762.35 3523C2757.75 3519.2 2751.85 3517.3 2744.65 3517.3C2739.45 3517.3 2734.65 3518.1 2730.25 3519.7C2726.05 3521.1 2722.45 3522.8 2719.45 3524.8V3570.1H2682.55V3522.4C2682.55 3517.6 2683.55 3513.7 2685.55 3510.7C2687.55 3507.5 2690.55 3504.6 2694.55 3502C2700.75 3497.8 2708.35 3494.4 2717.35 3491.8C2726.55 3489.2 2736.05 3487.9 2745.85 3487.9C2755.65 3487.9 2764.65 3489.4 2772.85 3492.4C2781.05 3495.4 2787.75 3499.8 2792.95 3505.6C2794.35 3506.8 2795.65 3508 2796.85 3509.2C2798.05 3510.4 2799.05 3511.8 2799.85 3513.4C2801.65 3516.4 2803.15 3519.9 2804.35 3523.9C2805.75 3527.7 2806.45 3531.7 2806.45 3535.9ZM2893.15 3538.9V3570.1H2856.25V3540.1C2856.25 3532.3 2854.05 3526.6 2849.65 3523C2845.25 3519.2 2839.35 3517.3 2831.95 3517.3C2826.55 3517.3 2821.25 3518.4 2816.05 3520.6C2811.05 3522.8 2806.75 3525.7 2803.15 3529.3L2784.55 3506.8C2790.75 3501.6 2798.05 3497.2 2806.45 3493.6C2814.85 3489.8 2824.85 3487.9 2836.45 3487.9C2847.05 3487.9 2856.65 3489.6 2865.25 3493C2873.85 3496.4 2880.65 3501.9 2885.65 3509.5C2890.65 3517.1 2893.15 3526.9 2893.15 3538.9ZM2682.55 3555.7H2719.45V3633.4C2717.85 3634 2715.55 3634.5 2712.55 3634.9C2709.55 3635.5 2706.25 3635.8 2702.65 3635.8C2695.85 3635.8 2690.75 3634.6 2687.35 3632.2C2684.15 3629.6 2682.55 3625.1 2682.55 3618.7V3555.7ZM2769.55 3555.7H2806.45V3633.4C2804.85 3634 2802.45 3634.5 2799.25 3634.9C2796.25 3635.5 2793.05 3635.8 2789.65 3635.8C2782.65 3635.8 2777.55 3634.6 2774.35 3632.2C2771.15 3629.6 2769.55 3625.1 2769.55 3618.7V3555.7ZM2856.25 3555.7H2893.15V3633.4C2891.75 3634 2889.45 3634.5 2886.25 3634.9C2883.25 3635.5 2880.05 3635.8 2876.65 3635.8C2869.65 3635.8 2864.45 3634.6 2861.05 3632.2C2857.85 3629.6 2856.25 3625.1 2856.25 3618.7V3555.7Z" fill="#FFE381"/>
</g>
<defs>
<filter id="filter0_d_519_105" x="2777.25" y="1476.4" width="8365.2" height="1206.4" filterUnits="userSpaceOnUse" color-interpolation-filters="sRGB">
<feFlood flood-opacity="0" result="BackgroundImageFix"/>
<feColorMatrix in="SourceAlpha" type="matrix" values="0 0 0 0 0 0 0 0 0 0 0 0 0 0 0 0 0 0 127 0" result="hardAlpha"/>
<feOffset dx="-60" dy="60"/>
<feGaussianBlur stdDeviation="30"/>
<feComposite in2="hardAlpha" operator="out"/>
<feColorMatrix type="matrix" values="0 0 0 0 0 0 0 0 0 0 0 0 0 0 0 0 0 0 0.25 0"/>
<feBlend mode="normal" in2="BackgroundImageFix" result="effect1_dropShadow_519_105"/>
<feBlend mode="normal" in="SourceGraphic" in2="effect1_dropShadow_519_105" result="shape"/>
</filter>
<linearGradient id="paint0_linear_519_105" x1="15217" y1="-258" x2="4009.53" y2="10726.9" gradientUnits="userSpaceOnUse">
<stop stop-color="#55EAF6"/>
<stop offset="1" stop-color="#1D5156"/>
</linearGradient>
<radialGradient id="paint1_radial_519_105" cx="0" cy="0" r="1" gradientUnits="userSpaceOnUse" gradientTransform="translate(13245.5 -62.2779) rotate(157.725) scale(4204.78 5670.49)">
<stop stop-color="white"/>
<stop offset="1" stop-opacity="0"/>
</radialGradient>
<radialGradient id="paint2_radial_519_105" cx="0" cy="0" r="1" gradientUnits="userSpaceOnUse" gradientTransform="translate(10668.5 3368) rotate(177.543) scale(3125.37 11143.9)">
<stop stop-color="white"/>
<stop offset="1" stop-color="#747474" stop-opacity="0"/>
</radialGradient>
<linearGradient id="paint3_linear_519_105" x1="12581.5" y1="-301.5" x2="1974.5" y2="3423" gradientUnits="userSpaceOnUse">
<stop stop-color="#73D9E2"/>
<stop offset="1" stop-color="#2C7980"/>
</linearGradient>
<linearGradient id="paint4_linear_519_105" x1="11888.2" y1="52.9377" x2="2607.06" y2="3311.87" gradientUnits="userSpaceOnUse">
<stop stop-color="#73D9E2"/>
<stop offset="1" stop-color="#2C7980"/>
</linearGradient>
<linearGradient id="paint5_linear_519_105" x1="11194.9" y1="407.375" x2="3239.62" y2="3200.75" gradientUnits="userSpaceOnUse">
<stop stop-color="#73D9E2"/>
<stop offset="1" stop-color="#2C7980"/>
</linearGradient>
<linearGradient id="paint6_linear_519_105" x1="13238.8" y1="-655.937" x2="1305.94" y2="3534.12" gradientUnits="userSpaceOnUse">
<stop stop-color="#73D9E2"/>
<stop offset="1" stop-color="#2C7980"/>
</linearGradient>
<linearGradient id="paint7_linear_519_105" x1="13968.1" y1="-1010.37" x2="709.375" y2="3645.25" gradientUnits="userSpaceOnUse">
<stop stop-color="#73D9E2"/>
<stop offset="1" stop-color="#2C7980"/>
</linearGradient>
<linearGradient id="paint8_linear_519_105" x1="14661.4" y1="-1364.81" x2="76.812" y2="3756.37" gradientUnits="userSpaceOnUse">
<stop stop-color="#73D9E2"/>
<stop offset="1" stop-color="#2C7980"/>
</linearGradient>
<linearGradient id="paint9_linear_519_105" x1="16445.5" y1="-267.5" x2="-484" y2="2534" gradientUnits="userSpaceOnUse">
<stop stop-color="#79E5EF"/>
<stop offset="1" stop-color="#2C7980"/>
</linearGradient>
<linearGradient id="paint10_linear_519_105" x1="15318.7" y1="-1719.25" x2="-591.751" y2="3867.5" gradientUnits="userSpaceOnUse">
<stop stop-color="#73D9E2"/>
<stop offset="1" stop-color="#2C7980"/>
</linearGradient>
<linearGradient id="paint11_linear_519_105" x1="14304" y1="22.5002" x2="-1224.31" y2="3978.62" gradientUnits="userSpaceOnUse">
<stop stop-color="#73D9E2"/>
<stop offset="1" stop-color="#2C7980"/>
</linearGradient>
<clipPath id="clip0_519_105">
<rect width="14070" height="3946" fill="white"/>
</clipPath>
</defs>
</svg>
